<?xml version="1.0" encoding="UTF-8"?>
<svg xmlns="http://www.w3.org/2000/svg" viewBox="0 0 447.59 447.82">
  <defs>
    <style>
      .cls-1 {
        fill: #c28e7e;
      }

      .cls-2 {
        fill: #946433;
        font-family: PoorRichard-Regular, 'Poor Richard';
        font-size: 102.21px;
      }

      .cls-3 {
        fill: #8b4b3c;
        font-family: MonotypeCorsiva, 'Monotype Corsiva';
        font-size: 38px;
      }

      .cls-4 {
        fill: #c4a17d;
      }

      .cls-5 {
        fill: #745d3d;
        font-family: PalatinoLinotype-Roman, 'Palatino Linotype';
        font-size: 33.72px;
      }

      .cls-6 {
        fill: #edc99e;
      }

      .cls-7 {
        fill: #917663;
      }
    </style>
  </defs>
  <g id="Capa_1" data-name="Capa 1">
    <path class="cls-7" d="m223.17,8.11c34.18.11,39.51-12.54,60.08-6.3,20.9,6.35,17.91,20.16,44.92,36.3,28.9,17.26,41.47,6.91,58.41,23.36,14.99,14.55,6.78,24.24,23.59,53.64,17.54,30.69,31.5,28.92,36.07,49.69,5.07,23.02-11.36,28.42-11.07,60.31.29,32.27,17.22,38.9,11.07,59.01-6.72,21.95-27.89,17.63-43.07,43.99-15.22,26.42-.89,43.72-16.59,59.34-14.34,14.28-28.43,1.95-54.41,15.66-29.32,15.46-26.45,39.09-48.92,44-20.82,4.55-26.63-15.01-56.08-16-31.82-1.06-38.82,20.87-63.23,16-22.57-4.5-20.21-24.06-52.77-41-26.84-13.97-36.75-4.99-50.57-18.66-16.84-16.66-4.6-32.42-21.43-60.34-15.87-26.31-33.24-23.09-38.22-42.99-5.58-22.28,15.32-29.86,15.22-61.01-.09-30.38-20-36.34-15.22-58.31,4.97-22.85,27.33-20.23,43.22-50.69,13.54-25.95,2.43-37.69,16.43-52.64,15.48-16.53,31.29-4.56,59.57-21.36,25.98-15.43,22.38-31.33,43.77-38.3,19.64-6.4,25.18,6.19,59.23,6.3Z"/>
  </g>
  <g id="Capa_3" data-name="Capa 3">
    <circle class="cls-4" cx="223.81" cy="223.27" r="188.3"/>
    <circle class="cls-6" cx="223.79" cy="223.91" r="176.08"/>
    <path class="cls-1" d="m79.17,262.11c39.3-1.68,99.01-.8,138.9-1,40.05.19,99.38-.66,138.9,1-39.3,1.66-99.01.81-138.9,1-40.05-.2-99.38.69-138.9-1h0Z"/>
    <path class="cls-1" d="m106.79,120.56c32.2-1.68,81.13-.8,113.82-1,32.82.19,81.44-.66,113.81,1-32.2,1.66-81.13.81-113.81,1-32.82-.2-81.44.69-113.82-1h0Z"/>
  </g>
  <g id="Capa_2" data-name="Capa 2">
    <text class="cls-2" transform="translate(107.94 214.11)"><tspan x="0" y="0">SART</tspan></text>
    <text class="cls-5" transform="translate(123.74 249.15)"><tspan x="0" y="0">Gastronomía</tspan></text>
    <text class="cls-3" transform="translate(108.55 317.75) rotate(42.24)"><tspan x="0" y="0">A</tspan></text>
    <text class="cls-3" transform="translate(127.51 334.35) rotate(35.63)"><tspan x="0" y="0">r</tspan></text>
    <text class="cls-3" transform="translate(137.75 341.73) rotate(30.66)"><tspan x="0" y="0">o</tspan></text>
    <text class="cls-3" transform="translate(152.4 350.6) rotate(23.05)"><tspan x="0" y="0">m</tspan></text>
    <text class="cls-3" transform="translate(176.13 360.25) rotate(14.82)"><tspan x="0" y="0">a</tspan></text>
    <text class="cls-3" transform="translate(192.88 364.45) rotate(9.6)"><tspan x="0" y="0">,</tspan></text>
    <text class="cls-3" transform="translate(202.02 365.96) rotate(6)"><tspan x="0" y="0"> </tspan></text>
    <text class="cls-3" transform="translate(211.41 366.98) rotate(1.62)"><tspan x="0" y="0">s</tspan></text>
    <text class="cls-3" transform="translate(225.02 367.39) rotate(-4.26)"><tspan x="0" y="0">a</tspan></text>
    <text class="cls-3" transform="translate(242.63 365.97) rotate(-11.08)"><tspan x="0" y="0">b</tspan></text>
    <text class="cls-3" transform="translate(259.92 362.46) rotate(-17.77)"><tspan x="0" y="0">o</tspan></text>
    <text class="cls-3" transform="translate(275.66 357.25) rotate(-23.34)"><tspan x="0" y="0">r</tspan></text>
    <text class="cls-3" transform="translate(287 352.25) rotate(-27.35)"><tspan x="0" y="0"> </tspan></text>
    <text class="cls-3" transform="translate(295.5 347.96) rotate(-31.98)"><tspan x="0" y="0">y</tspan></text>
    <text class="cls-3" transform="translate(309.23 339.18) rotate(-36.45)"><tspan x="0" y="0"> </tspan></text>
    <text class="cls-3" transform="translate(316.72 333.68) rotate(-40.28)"><tspan x="0" y="0">t</tspan></text>
    <text class="cls-3" transform="translate(327.16 324.93) rotate(-46.04)"><tspan x="0" y="0">ú</tspan></text>
  </g>
</svg>